Coordinates
version=1
nRows=4
nColumns=107
inDegrees=yes

Units are S.I. units (second, meters, Newtons, ...)
If the header above contains a line with 'inDegrees', this indicates whether rotational values are in degrees (yes) or radians (no).

endheader
time	sternoclavicular_r2	sternoclavicular_r3	unrotscap_r3	unrotscap_r2	acromioclavicular_r2	acromioclavicular_r3	acromioclavicular_r1	unrothum_r1	unrothum_r3	unrothum_r2	elv_angle	shoulder_elv	shoulder1_r2	shoulder_rot	elbow_flexion	pro_sup	deviation	flexion	proximal_distal_r1	proximal_distal_r3	cmc_flexion	cmc_abduction	mp_flexion	ip_flexion	mcp2_flexion	mcp2_abduction	pm2_flexion	md2_flexion	mcp3_flexion	mcp3_abduction	pm3_flexion	md3_flexion	mcp4_flexion	mcp4_abduction	pm4_flexion	md4_flexion	mcp5_flexion	mcp5_abduction	pm5_flexion	md5_flexion	bicpt_tx	bicpt_ty	bicpt_tz	bicpt2_tx	bicpt2_ty	bicpt2_tz	ptpt_tx	ptpt_ty	ptpt_tz	FCUpt_tx	FCUpt_ty	FCUpt_tz	EDCpt_tx	EDCpt_ty	EDCpt_tz	APLpt_tx	APLpt_ty	APLpt_tz	FPLpt_tx	FPLpt_ty	FPLpt_tz	FPLpt2_tx	FPLpt2_ty	FPLpt2_tz	PEC1pt2_tx	PEC1pt2_ty	PEC1pt2_tz	PEC1pt3_tx	PEC1pt3_ty	PEC1pt3_tz	PEC2pt2_tx	PEC2pt2_ty	PEC2pt2_tz	PEC2pt3_tx	PEC2pt3_ty	PEC2pt3_tz	PEC3pt2_tx	PEC3pt2_ty	PEC3pt2_tz	PEC3pt3_tx	PEC3pt3_ty	PEC3pt3_tz	DELT2pt2a_tx	DELT2pt2a_ty	DELT2pt2a_tz	DELT2pt2_tx	DELT2pt2_ty	DELT2pt2_tz	LAT1pt2_tx	LAT1pt2_ty	LAT1pt2_tz	LAT1pt3_tx	LAT1pt3_ty	LAT1pt3_tz	LAT2pt2_tx	LAT2pt2_ty	LAT2pt2_tz	LAT2pt3_tx	LAT2pt3_ty	LAT2pt3_tz	LAT3pt2_tx	LAT3pt2_ty	LAT3pt2_tz	LAT3pt3_tx	LAT3pt3_ty	LAT3pt3_tz
      0.96666667	     -0.31576067	      0.13374132	     -0.13374132	      0.31576067	     -0.06393511	      0.51670109	      0.23225358	     -0.23225358	     -0.51670109	      0.06393511	    101.10351245	     74.75914484	     -1.76458918	    -35.28746873	     30.74255723	     81.49046381	      0.33659024	     -0.63649629	      0.36406936	     -0.31824814	     32.56128103	    -23.01150931	    -15.59709890	      7.06372538	    104.12463587	     12.83677846	     66.51193556	     46.87302532	     97.00056595	      0.84380174	     75.33262548	     46.96335782	     92.16751540	    -13.46215333	     86.30010449	     43.73894343	     96.30313974	    -14.21514392	     81.13969562	      5.54965911	      0.00091687	     -0.03112357	     -0.00486755	      0.01468281	     -0.01855137	     -0.00183404	      0.00152877	     -0.06879342	     -0.00661449	      0.01222310	     -0.18238756	     -0.00003276	     -0.00977883	      0.00333368	     -0.00061792	      0.00031195	      0.00012478	      0.00062390	      0.00039930	      0.00119789	      0.00067381	     -0.00001138	     -0.00022501	     -0.00027001	      0.00245044	      0.00859731	      0.00598074	     -0.00801585	      0.01935433	     -0.01835754	      0.00245044	      0.00859731	      0.00598074	      0.00053993	      0.01794221	     -0.00942797	      0.00389428	      0.00478085	      0.01583498	      0.00000000	      0.00747253	      0.00000000	     -0.00701906	     -0.03243719	     -0.00615967	      0.02103504	     -0.00094129	     -0.01023434	     -0.00087219	      0.01461958	     -0.00598074	      0.00240891	      0.02109871	     -0.01744382	     -0.00585614	      0.01266753	     -0.00535774	     -0.01221067	      0.02674718	     -0.02994522	     -0.02292616	      0.01416272	     -0.00718519	     -0.01520104	      0.03090047	     -0.03742114
      1.00000000	     -0.31601826	      0.13385042	     -0.13385042	      0.31601826	     -0.06398727	      0.51712259	      0.23244305	     -0.23244305	     -0.51712259	      0.06398727	    101.05713184	     74.82013090	     -1.76377968	    -35.00839328	     30.68401517	     81.30399455	      0.33763756	     -0.63665959	      0.36491301	     -0.31832980	     32.52647074	    -23.01928640	    -15.53689675	      7.01758594	    104.30394612	     12.83523261	     66.39775174	     47.08916627	     97.06358730	      0.88859906	     75.42615419	     46.95521218	     92.05651035	    -13.45323970	     86.06347026	     43.74790905	     96.59117002	    -14.21385531	     81.24513171	      5.54702185	      0.00091493	     -0.03111686	     -0.00486647	      0.01470010	     -0.01853546	     -0.00186476	      0.00154255	     -0.06878452	     -0.00659947	      0.01220195	     -0.18239363	     -0.00003724	     -0.00975646	      0.00332372	     -0.00061241	      0.00031194	      0.00012478	      0.00062389	      0.00039929	      0.00119786	      0.00067380	     -0.00001135	     -0.00022540	     -0.00027048	      0.00245244	      0.00860432	      0.00598562	     -0.00802239	      0.01937012	     -0.01837251	      0.00245244	      0.00860432	      0.00598562	      0.00054037	      0.01795685	     -0.00943566	      0.00389662	      0.00478475	      0.01584083	      0.00000000	      0.00748481	      0.00000000	     -0.00702478	     -0.03246365	     -0.00616987	      0.02093049	     -0.00093140	     -0.01008237	     -0.00087290	      0.01463150	     -0.00598562	      0.00241087	      0.02111592	     -0.01745805	     -0.00586092	      0.01267787	     -0.00536211	     -0.01222063	      0.02676900	     -0.02996964	     -0.02294486	      0.01417427	     -0.00719105	     -0.01521344	      0.03092568	     -0.03745166
      1.03333333	     -0.31566181	      0.13369945	     -0.13369945	      0.31566181	     -0.06391510	      0.51653933	      0.23218087	     -0.23218087	     -0.51653933	      0.06391510	    101.14766110	     74.73574038	     -1.76535972	    -35.44543931	     30.74236622	     81.66764921	      0.33509054	     -0.63653296	      0.36285852	     -0.31826648	     32.52964310	    -23.02534431	    -15.40646906	      6.77805961	    104.23553576	     12.84514302	     66.54507940	     46.36968573	     97.02965532	      0.90015301	     75.37862040	     47.19267144	     91.96815951	    -13.45195974	     86.15045802	     43.66841669	     96.47374568	    -14.21350611	     81.19405975	      5.54822323	      0.00091686	     -0.03112355	     -0.00486755	      0.01466626	     -0.01855131	     -0.00180479	      0.00151568	     -0.06880189	     -0.00662877	      0.01224321	     -0.18238178	     -0.00002846	     -0.00980009	      0.00334317	     -0.00062319	      0.00031195	      0.00012478	      0.00062390	      0.00039930	      0.00119789	      0.00067381	     -0.00001135	     -0.00022536	     -0.00027044	      0.00244967	      0.00859462	      0.00597886	     -0.00801334	      0.01934827	     -0.01835179	      0.00244967	      0.00859462	      0.00597886	      0.00053976	      0.01793659	     -0.00942502	      0.00389338	      0.00477936	      0.01583273	      0.00000000	      0.00746783	      0.00000000	     -0.00701686	     -0.03242703	     -0.00615576	      0.02109367	     -0.00094690	     -0.01032079	     -0.00087192	      0.01461500	     -0.00597886	      0.00240815	      0.02109210	     -0.01743835	     -0.00585430	      0.01266357	     -0.00535607	     -0.01220685	      0.02673881	     -0.02993584	     -0.02291898	      0.01415828	     -0.00718294	     -0.01519628	      0.03089080	     -0.03740942
      1.06666667	     -0.31577869	      0.13374895	     -0.13374895	      0.31577869	     -0.06393876	      0.51673058	      0.23226684	     -0.23226684	     -0.51673058	      0.06393876	    101.14997705	     74.76341214	     -1.76540014	    -35.36332750	     30.67309490	     81.58863471	      0.33484232	     -0.63945728	      0.36265779	     -0.31972864	     32.55864941	    -23.01918580	    -15.45190992	      6.78134316	    104.37062403	     12.84421325	     66.74611082	     46.04852632	     97.10891549	      0.96029077	     75.46764261	     47.08075309	     92.06447390	    -13.46032311	     86.24808884	     43.58876979	     96.67954601	    -14.21514467	     81.17487176	      5.54171081	      0.00091457	     -0.03111561	     -0.00486627	      0.01467366	     -0.01853250	     -0.00181784	      0.00152152	     -0.06879811	     -0.00662240	      0.01223424	     -0.18238436	     -0.00003038	     -0.00979061	      0.00333894	     -0.00062084	      0.00031182	      0.00012473	      0.00062363	      0.00039913	      0.00119738	      0.00067353	     -0.00001137	     -0.00022504	     -0.00027005	      0.00245058	      0.00859780	      0.00598108	     -0.00801631	      0.01935543	     -0.01835859	      0.00245058	      0.00859780	      0.00598108	      0.00053996	      0.01794323	     -0.00942850	      0.00389445	      0.00478113	      0.01583539	      0.00000000	      0.00747339	      0.00000000	     -0.00701946	     -0.03243904	     -0.00616038	      0.02106327	     -0.00094398	     -0.01027579	     -0.00087224	      0.01462041	     -0.00598108	      0.00240905	      0.02109991	     -0.01744481	     -0.00585647	      0.01266826	     -0.00535805	     -0.01221137	      0.02674871	     -0.02994693	     -0.02292747	      0.01416353	     -0.00718560	     -0.01520191	      0.03090224	     -0.03742327
